<svg width="17" height="18" viewBox="0 0 17 18" fill="none" xmlns="http://www.w3.org/2000/svg">
<path d="M2.3999 17.75C1.8499 17.75 1.37924 17.5543 0.987902 17.163C0.595902 16.771 0.399902 16.3 0.399902 15.75V6.75C0.399902 6.43333 0.470902 6.13333 0.612902 5.85C0.754236 5.56667 0.949903 5.33333 1.1999 5.15L7.1999 0.65C7.38324 0.516667 7.5749 0.416667 7.7749 0.35C7.9749 0.283333 8.18324 0.25 8.3999 0.25C8.61657 0.25 8.8249 0.283333 9.0249 0.35C9.2249 0.416667 9.41657 0.516667 9.5999 0.65L15.5999 5.15C15.8499 5.33333 16.0459 5.56667 16.1879 5.85C16.3292 6.13333 16.3999 6.43333 16.3999 6.75V15.75C16.3999 16.3 16.2042 16.771 15.8129 17.163C15.4209 17.5543 14.9499 17.75 14.3999 17.75H10.3999V10.75H6.3999V17.75H2.3999Z" fill="white"/>
</svg>
