<svg width="18" height="18" viewBox="0 0 18 18" fill="none" xmlns="http://www.w3.org/2000/svg">
<path d="M12.6 11.7C11.85 11.7 11.2125 11.4375 10.6875 10.9125C10.1625 10.3875 9.9 9.75 9.9 9C9.9 8.25 10.1625 7.6125 10.6875 7.0875C11.2125 6.5625 11.85 6.3 12.6 6.3C13.35 6.3 13.9875 6.5625 14.5125 7.0875C15.0375 7.6125 15.3 8.25 15.3 9C15.3 9.75 15.0375 10.3875 14.5125 10.9125C13.9875 11.4375 13.35 11.7 12.6 11.7ZM5.4 15.39V16.2H1.8C1.305 16.2 0.8811 16.0239 0.5283 15.6717C0.1761 15.3189 0 14.895 0 14.4V1.8C0 1.305 0.1761 0.8811 0.5283 0.5283C0.8811 0.1761 1.305 0 1.8 0H14.4C14.895 0 15.3189 0.1761 15.6717 0.5283C16.0239 0.8811 16.2 1.305 16.2 1.8V6.3C15.735 5.715 15.21 5.2686 14.625 4.9608C14.04 4.6536 13.365 4.5 12.6 4.5C12.6 4.245 12.5136 4.0311 12.3408 3.8583C12.1686 3.6861 11.955 3.6 11.7 3.6H4.5C4.245 3.6 4.0311 3.6861 3.8583 3.8583C3.6861 4.0311 3.6 4.245 3.6 4.5C3.6 4.755 3.6861 4.9686 3.8583 5.1408C4.0311 5.3136 4.245 5.4 4.5 5.4H9.9C9.6 5.64 9.33 5.91 9.09 6.21C8.85 6.51 8.6475 6.84 8.4825 7.2H4.5C4.245 7.2 4.0311 7.2861 3.8583 7.4583C3.6861 7.6311 3.6 7.845 3.6 8.1C3.6 8.355 3.6861 8.5686 3.8583 8.7408C4.0311 8.9136 4.245 9 4.5 9H8.1C8.1 9.315 8.1339 9.6225 8.2017 9.9225C8.2689 10.2225 8.3625 10.515 8.4825 10.8H4.5C4.245 10.8 4.0311 10.8861 3.8583 11.0583C3.6861 11.2311 3.6 11.445 3.6 11.7C3.6 11.955 3.6861 12.1686 3.8583 12.3408C4.0311 12.5136 4.245 12.6 4.5 12.6H6.705C6.3 12.945 5.9811 13.3611 5.7483 13.8483C5.5161 14.3361 5.4 14.85 5.4 15.39ZM8.1 18C7.845 18 7.6314 17.9136 7.4592 17.7408C7.2864 17.5686 7.2 17.355 7.2 17.1V15.39C7.2 15.075 7.275 14.7786 7.425 14.5008C7.575 14.2236 7.785 14.0025 8.055 13.8375C8.535 13.5525 8.94 13.3536 9.27 13.2408C9.6 13.1286 10.0425 13.0275 10.5975 12.9375C10.7775 12.9075 10.9575 12.9111 11.1375 12.9483C11.3175 12.9861 11.4675 13.0725 11.5875 13.2075L12.6 14.4L13.59 13.2075C13.71 13.0575 13.86 12.9675 14.04 12.9375C14.22 12.9075 14.4 12.9075 14.58 12.9375C15.135 13.0275 15.5775 13.1286 15.9075 13.2408C16.2375 13.3536 16.6425 13.5525 17.1225 13.8375C17.3925 14.0025 17.6064 14.2236 17.7642 14.5008C17.9214 14.7786 18 15.075 18 15.39V17.1C18 17.355 17.9136 17.5686 17.7408 17.7408C17.5686 17.9136 17.355 18 17.1 18H8.1Z" fill="white"/>
</svg>
