<svg width="19" height="20" viewBox="0 0 19 20" fill="none" xmlns="http://www.w3.org/2000/svg">
<path d="M11.3278 19.4963H7.67222C7.42852 19.4963 7.21731 19.415 7.0386 19.2526C6.85988 19.0901 6.75427 18.887 6.72178 18.6433L6.42934 16.3769C6.21813 16.2956 6.01927 16.1981 5.83275 16.0844C5.64559 15.9707 5.46265 15.8488 5.28393 15.7189L3.16371 16.5962C2.93626 16.6774 2.7088 16.6856 2.48134 16.6206C2.25389 16.5556 2.07517 16.4175 1.9452 16.2063L0.141791 13.0625C0.0118159 12.8513 -0.0288013 12.6238 0.0199394 12.3801C0.06868 12.1364 0.190532 11.9415 0.385494 11.7952L2.21327 10.4061C2.19702 10.2924 2.1889 10.1826 2.1889 10.0766V9.41865C2.1889 9.31337 2.19702 9.20386 2.21327 9.09013L0.385494 7.70103C0.190532 7.5548 0.06868 7.35984 0.0199394 7.11614C-0.0288013 6.87243 0.0118159 6.64498 0.141791 6.43377L1.9452 3.29C2.05892 3.06254 2.23342 2.92022 2.46867 2.86303C2.70458 2.80649 2.93626 2.81884 3.16371 2.90007L5.28393 3.7774C5.46265 3.64743 5.64949 3.52557 5.84445 3.41185C6.03941 3.29812 6.23437 3.20064 6.42934 3.1194L6.72178 0.852962C6.75427 0.609258 6.85988 0.406172 7.0386 0.243703C7.21731 0.0812344 7.42852 0 7.67222 0H11.3278C11.5715 0 11.7827 0.0812344 11.9614 0.243703C12.1401 0.406172 12.2457 0.609258 12.2782 0.852962L12.5707 3.1194C12.7819 3.20064 12.9811 3.29812 13.1682 3.41185C13.3547 3.52557 13.5374 3.64743 13.7161 3.7774L15.8363 2.90007C16.0637 2.81884 16.2912 2.81071 16.5187 2.8757C16.7461 2.94069 16.9248 3.07879 17.0548 3.29L18.8582 6.43377C18.9882 6.64498 19.0288 6.87243 18.9801 7.11614C18.9313 7.35984 18.8095 7.5548 18.6145 7.70103L16.7867 9.09013C16.803 9.20386 16.8111 9.31337 16.8111 9.41865V10.0766C16.8111 10.1826 16.7949 10.2924 16.7624 10.4061L18.5901 11.7952C18.7851 11.9415 18.907 12.1364 18.9557 12.3801C19.0044 12.6238 18.9638 12.8513 18.8338 13.0625L17.0304 16.1819C16.9005 16.3931 16.7178 16.5354 16.4826 16.6089C16.2467 16.6817 16.015 16.6774 15.7875 16.5962L13.7161 15.7189C13.5374 15.8488 13.3505 15.9707 13.1556 16.0844C12.9606 16.1981 12.7656 16.2956 12.5707 16.3769L12.2782 18.6433C12.2457 18.887 12.1401 19.0901 11.9614 19.2526C11.7827 19.415 11.5715 19.4963 11.3278 19.4963ZM9.54874 13.16C10.4911 13.16 11.2953 12.8269 11.9614 12.1608C12.6275 11.4947 12.9606 10.6905 12.9606 9.74813C12.9606 8.80581 12.6275 8.00159 11.9614 7.33547C11.2953 6.66935 10.4911 6.33629 9.54874 6.33629C8.59017 6.33629 7.78173 6.66935 7.1234 7.33547C6.46573 8.00159 6.13689 8.80581 6.13689 9.74813C6.13689 10.6905 6.46573 11.4947 7.1234 12.1608C7.78173 12.8269 8.59017 13.16 9.54874 13.16Z" fill="white"/>
</svg>
