<svg width="20" height="20" viewBox="0 0 20 20" fill="none" xmlns="http://www.w3.org/2000/svg">
<path d="M11.7277 19.7482H8.07213C7.82842 19.7482 7.61721 19.6669 7.4385 19.5045C7.25978 19.342 7.15418 19.1389 7.12168 18.8952L6.82924 16.6288C6.61803 16.5475 6.41917 16.45 6.23265 16.3363C6.04549 16.2226 5.86255 16.1007 5.68383 15.9708L3.56361 16.8481C3.33616 16.9293 3.1087 16.9374 2.88125 16.8725C2.65379 16.8075 2.47507 16.6694 2.3451 16.4582L0.541693 13.3144C0.411718 13.1032 0.371101 12.8757 0.419842 12.632C0.468582 12.3883 0.590434 12.1934 0.785397 12.0471L2.61317 10.658C2.59693 10.5443 2.5888 10.4345 2.5888 10.3285V9.67054C2.5888 9.56526 2.59693 9.45575 2.61317 9.34203L0.785397 7.95292C0.590434 7.80669 0.468582 7.61173 0.419842 7.36803C0.371101 7.12433 0.411718 6.89687 0.541693 6.68566L2.3451 3.54189C2.45883 3.31443 2.63332 3.17211 2.86857 3.11492C3.10448 3.05838 3.33616 3.07073 3.56361 3.15196L5.68383 4.02929C5.86255 3.89932 6.04939 3.77747 6.24435 3.66374C6.43931 3.55001 6.63428 3.45253 6.82924 3.37129L7.12168 1.10485C7.15418 0.86115 7.25978 0.658064 7.4385 0.495595C7.61721 0.333127 7.82842 0.251892 8.07213 0.251892H11.7277C11.9714 0.251892 12.1826 0.333127 12.3613 0.495595C12.54 0.658064 12.6456 0.86115 12.6781 1.10485L12.9706 3.37129C13.1818 3.45253 13.381 3.55001 13.5681 3.66374C13.7546 3.77747 13.9373 3.89932 14.116 4.02929L16.2362 3.15196C16.4636 3.07073 16.6911 3.0626 16.9186 3.12759C17.146 3.19258 17.3247 3.33068 17.4547 3.54189L19.2581 6.68566C19.3881 6.89687 19.4287 7.12433 19.38 7.36803C19.3312 7.61173 19.2094 7.80669 19.0144 7.95292L17.1866 9.34203C17.2029 9.45575 17.211 9.56526 17.211 9.67054V10.3285C17.211 10.4345 17.1948 10.5443 17.1623 10.658L18.99 12.0471C19.185 12.1934 19.3069 12.3883 19.3556 12.632C19.4043 12.8757 19.3637 13.1032 19.2337 13.3144L17.4303 16.4338C17.3004 16.645 17.1177 16.7873 16.8825 16.8608C16.6466 16.9335 16.4149 16.9293 16.1874 16.8481L14.116 15.9708C13.9373 16.1007 13.7504 16.2226 13.5555 16.3363C13.3605 16.45 13.1655 16.5475 12.9706 16.6288L12.6781 18.8952C12.6456 19.1389 12.54 19.342 12.3613 19.5045C12.1826 19.6669 11.9714 19.7482 11.7277 19.7482ZM9.94864 13.4119C10.891 13.4119 11.6952 13.0788 12.3613 12.4127C13.0274 11.7466 13.3605 10.9423 13.3605 10C13.3605 9.05771 13.0274 8.25348 12.3613 7.58736C11.6952 6.92124 10.891 6.58818 9.94864 6.58818C8.99008 6.58818 8.18163 6.92124 7.52331 7.58736C6.86563 8.25348 6.5368 9.05771 6.5368 10C6.5368 10.9423 6.86563 11.7466 7.52331 12.4127C8.18163 13.0788 8.99008 13.4119 9.94864 13.4119Z" fill="#323232"/>
</svg>
