<svg width="19" height="18" viewBox="0 0 19 18" fill="none" xmlns="http://www.w3.org/2000/svg">
<path d="M12.9999 11.7C12.2499 11.7 11.6124 11.4375 11.0874 10.9125C10.5624 10.3875 10.2999 9.75 10.2999 9C10.2999 8.25 10.5624 7.6125 11.0874 7.0875C11.6124 6.5625 12.2499 6.3 12.9999 6.3C13.7499 6.3 14.3874 6.5625 14.9124 7.0875C15.4374 7.6125 15.6999 8.25 15.6999 9C15.6999 9.75 15.4374 10.3875 14.9124 10.9125C14.3874 11.4375 13.7499 11.7 12.9999 11.7ZM5.7999 15.39V16.2H2.1999C1.7049 16.2 1.281 16.0239 0.928202 15.6717C0.576002 15.3189 0.399902 14.895 0.399902 14.4V1.8C0.399902 1.305 0.576002 0.8811 0.928202 0.5283C1.281 0.1761 1.7049 0 2.1999 0H14.7999C15.2949 0 15.7188 0.1761 16.0716 0.5283C16.4238 0.8811 16.5999 1.305 16.5999 1.8V6.3C16.1349 5.715 15.6099 5.2686 15.0249 4.9608C14.4399 4.6536 13.7649 4.5 12.9999 4.5C12.9999 4.245 12.9135 4.0311 12.7407 3.8583C12.5685 3.6861 12.3549 3.6 12.0999 3.6H4.8999C4.6449 3.6 4.431 3.6861 4.2582 3.8583C4.086 4.0311 3.9999 4.245 3.9999 4.5C3.9999 4.755 4.086 4.9686 4.2582 5.1408C4.431 5.3136 4.6449 5.4 4.8999 5.4H10.2999C9.9999 5.64 9.7299 5.91 9.4899 6.21C9.2499 6.51 9.0474 6.84 8.8824 7.2H4.8999C4.6449 7.2 4.431 7.2861 4.2582 7.4583C4.086 7.6311 3.9999 7.845 3.9999 8.1C3.9999 8.355 4.086 8.5686 4.2582 8.7408C4.431 8.9136 4.6449 9 4.8999 9H8.4999C8.4999 9.315 8.5338 9.6225 8.6016 9.9225C8.6688 10.2225 8.7624 10.515 8.8824 10.8H4.8999C4.6449 10.8 4.431 10.8861 4.2582 11.0583C4.086 11.2311 3.9999 11.445 3.9999 11.7C3.9999 11.955 4.086 12.1686 4.2582 12.3408C4.431 12.5136 4.6449 12.6 4.8999 12.6H7.1049C6.6999 12.945 6.381 13.3611 6.1482 13.8483C5.916 14.3361 5.7999 14.85 5.7999 15.39ZM8.4999 18C8.2449 18 8.0313 17.9136 7.8591 17.7408C7.6863 17.5686 7.5999 17.355 7.5999 17.1V15.39C7.5999 15.075 7.6749 14.7786 7.8249 14.5008C7.9749 14.2236 8.1849 14.0025 8.4549 13.8375C8.9349 13.5525 9.3399 13.3536 9.6699 13.2408C9.9999 13.1286 10.4424 13.0275 10.9974 12.9375C11.1774 12.9075 11.3574 12.9111 11.5374 12.9483C11.7174 12.9861 11.8674 13.0725 11.9874 13.2075L12.9999 14.4L13.9899 13.2075C14.1099 13.0575 14.2599 12.9675 14.4399 12.9375C14.6199 12.9075 14.7999 12.9075 14.9799 12.9375C15.5349 13.0275 15.9774 13.1286 16.3074 13.2408C16.6374 13.3536 17.0424 13.5525 17.5224 13.8375C17.7924 14.0025 18.0063 14.2236 18.1641 14.5008C18.3213 14.7786 18.3999 15.075 18.3999 15.39V17.1C18.3999 17.355 18.3135 17.5686 18.1407 17.7408C17.9685 17.9136 17.7549 18 17.4999 18H8.4999Z" fill="#323232"/>
</svg>
